<svg width="389" height="103" viewBox="0 0 389 103" fill="none" xmlns="http://www.w3.org/2000/svg">
<path d="M143.88 66V38H147.92L164.88 60.72L164.2 61.04C164.013 59.92 163.853 58.64 163.72 57.2C163.613 55.76 163.533 54.1867 163.48 52.48C163.427 50.7733 163.4 48.9467 163.4 47V38H167.88V66H163.76L147.04 44.04L147.56 43.52C147.747 45.52 147.893 47.16 148 48.44C148.107 49.72 148.187 50.7467 148.24 51.52C148.293 52.2933 148.333 52.9067 148.36 53.36C148.387 53.8133 148.4 54.2 148.4 54.52V66H143.88ZM228.198 66.24C226.038 66.24 224.091 65.7733 222.358 64.84C220.651 63.88 219.304 62.5733 218.318 60.92C217.358 59.24 216.878 57.3467 216.878 55.24V37.96H221.358V54.88C221.358 56.2133 221.664 57.4133 222.278 58.48C222.918 59.5467 223.758 60.4 224.798 61.04C225.838 61.6533 226.971 61.96 228.198 61.96C229.504 61.96 230.678 61.64 231.718 61C232.784 60.36 233.638 59.52 234.278 58.48C234.918 57.4133 235.238 56.2133 235.238 54.88V37.96H239.518V55.24C239.518 57.3467 239.024 59.24 238.038 60.92C237.078 62.5733 235.731 63.88 233.998 64.84C232.291 65.7733 230.358 66.24 228.198 66.24ZM288.525 66V38H292.925L303.125 54.6L300.885 54.56L311.205 38H315.365V66H310.885V54.76C310.885 52.3333 310.939 50.16 311.045 48.24C311.179 46.32 311.392 44.4133 311.685 42.52L312.245 44.04L303.205 58.04H300.525L291.765 44.2L292.205 42.52C292.525 44.3067 292.739 46.1467 292.845 48.04C292.979 49.9067 293.045 52.1467 293.045 54.76V66H288.525ZM361.775 66L372.655 38H377.135L387.935 66H383.135L376.815 49.32C376.735 49.1067 376.575 48.64 376.335 47.92C376.121 47.2 375.868 46.4133 375.575 45.56C375.308 44.68 375.055 43.88 374.815 43.16C374.575 42.44 374.415 41.96 374.335 41.72L375.255 41.68C375.095 42.16 374.895 42.7467 374.655 43.44C374.441 44.1067 374.215 44.8267 373.975 45.6C373.735 46.3467 373.495 47.0667 373.255 47.76C373.015 48.4267 372.801 49 372.615 49.48L366.335 66H361.775ZM366.615 59.16L368.255 54.92H380.975L382.855 59.16H366.615Z" fill="#1F2B3C"/>
<rect y="20.6876" width="29.2567" height="115.552" rx="14.6283" transform="rotate(-45 0 20.6876)" fill="#077FFE"/>
<path d="M78.4006 17.3201L96.6859 5.97058V64.6099L78.4006 44.9519V17.3201Z" fill="#077FFE"/>
<path d="M24.175 85.4174L5.88961 96.7669L5.88962 38.1276L24.175 57.7856L24.175 85.4174Z" fill="#202B3E"/>
</svg>
